<svg width="600" height="200" viewBox="0 0 600 200" fill="none" xmlns="http://www.w3.org/2000/svg">
<rect width="600" height="200" fill="white"/>
<rect x="32" y="32" width="536" height="136" fill="#ECF0F4"/>
<path fill-rule="evenodd" clip-rule="evenodd" d="M39.9595 24.8571V16C31.9324 17.9949 25.9325 22.5032 21.9595 29.5251C17.9865 36.547 16 46.0823 16 58.1313V78H43V51.4286H31.4459V48.6757C31.4459 42.2123 32.1554 37.0058 33.5743 33.056C34.9932 29.1062 37.1216 26.3732 39.9595 24.8571ZM84.9595 24.8571V16C76.9324 17.9949 70.9325 22.5032 66.9595 29.5251C62.9865 36.547 61 46.0823 61 58.1313V78H88V51.4286H76.4459V48.6757C76.4459 42.2123 77.1554 37.0058 78.5743 33.056C79.9932 29.1062 82.1216 26.3732 84.9595 24.8571Z" fill="#FDC72D"/>
<path fill-rule="evenodd" clip-rule="evenodd" d="M560.041 175.143V184C568.068 182.005 574.068 177.497 578.041 170.475C582.014 163.453 584 153.918 584 141.869V122H557V148.571H568.554V151.324C568.554 157.788 567.845 162.994 566.426 166.944C565.007 170.894 562.878 173.627 560.041 175.143ZM515.041 175.143V184C523.068 182.005 529.068 177.497 533.041 170.475C537.014 163.453 539 153.918 539 141.869V122H512V148.571H523.554V151.324C523.554 157.788 522.845 162.994 521.426 166.944C520.007 170.894 517.878 173.627 515.041 175.143Z" fill="#FDC72D"/>
<path opacity="0.6" d="M111.392 152.144H104.392L104.546 151.052H111.546L111.392 152.144Z" fill="#131415"/>
<path d="M122.233 157V146.818H128.378V147.912H123.466V151.352H128.06V152.446H123.466V155.906H128.457V157H122.233ZM130.441 157V149.364H131.575V150.517H131.654C131.793 150.139 132.045 149.833 132.41 149.597C132.774 149.362 133.185 149.244 133.643 149.244C133.729 149.244 133.837 149.246 133.966 149.249C134.095 149.253 134.193 149.258 134.259 149.264V150.457C134.219 150.447 134.128 150.433 133.986 150.413C133.847 150.389 133.699 150.378 133.543 150.378C133.172 150.378 132.841 150.456 132.549 150.612C132.261 150.764 132.032 150.976 131.863 151.248C131.697 151.516 131.614 151.823 131.614 152.168V157H130.441ZM135.65 157V149.364H136.823V157H135.65ZM136.247 148.091C136.018 148.091 135.821 148.013 135.655 147.857C135.493 147.701 135.411 147.514 135.411 147.295C135.411 147.077 135.493 146.889 135.655 146.734C135.821 146.578 136.018 146.5 136.247 146.5C136.475 146.5 136.671 146.578 136.833 146.734C136.999 146.889 137.082 147.077 137.082 147.295C137.082 147.514 136.999 147.701 136.833 147.857C136.671 148.013 136.475 148.091 136.247 148.091ZM140.066 154.216L140.046 152.764H140.285L143.626 149.364H145.077L141.518 152.963H141.418L140.066 154.216ZM138.972 157V146.818H140.146V157H138.972ZM143.825 157L140.842 153.222L141.677 152.406L145.316 157H143.825ZM154.582 146.818H155.815V154.097C155.815 154.746 155.695 155.298 155.457 155.752C155.218 156.206 154.882 156.551 154.448 156.786C154.013 157.022 153.501 157.139 152.911 157.139C152.355 157.139 151.859 157.038 151.425 156.836C150.991 156.63 150.649 156.339 150.401 155.961C150.152 155.583 150.028 155.134 150.028 154.614H151.241C151.241 154.902 151.312 155.154 151.455 155.369C151.601 155.581 151.799 155.747 152.051 155.866C152.303 155.986 152.59 156.045 152.911 156.045C153.266 156.045 153.568 155.971 153.816 155.822C154.065 155.673 154.254 155.454 154.383 155.165C154.516 154.874 154.582 154.518 154.582 154.097V146.818ZM159.3 152.406V157H158.127V146.818H159.3V150.557H159.399C159.578 150.162 159.847 149.849 160.205 149.617C160.566 149.382 161.047 149.264 161.646 149.264C162.167 149.264 162.623 149.369 163.014 149.577C163.405 149.783 163.708 150.099 163.923 150.527C164.142 150.951 164.252 151.491 164.252 152.148V157H163.078V152.227C163.078 151.621 162.921 151.152 162.606 150.82C162.294 150.486 161.862 150.318 161.308 150.318C160.924 150.318 160.579 150.399 160.274 150.562C159.973 150.724 159.734 150.961 159.558 151.273C159.386 151.584 159.3 151.962 159.3 152.406ZM169.5 157.159C168.811 157.159 168.206 156.995 167.686 156.667C167.169 156.339 166.764 155.88 166.473 155.29C166.184 154.7 166.04 154.01 166.04 153.222C166.04 152.426 166.184 151.732 166.473 151.138C166.764 150.545 167.169 150.085 167.686 149.756C168.206 149.428 168.811 149.264 169.5 149.264C170.19 149.264 170.793 149.428 171.31 149.756C171.83 150.085 172.235 150.545 172.523 151.138C172.815 151.732 172.961 152.426 172.961 153.222C172.961 154.01 172.815 154.7 172.523 155.29C172.235 155.88 171.83 156.339 171.31 156.667C170.793 156.995 170.19 157.159 169.5 157.159ZM169.5 156.105C170.024 156.105 170.455 155.971 170.793 155.702C171.131 155.434 171.381 155.081 171.544 154.643C171.706 154.206 171.787 153.732 171.787 153.222C171.787 152.711 171.706 152.236 171.544 151.795C171.381 151.354 171.131 150.998 170.793 150.726C170.455 150.454 170.024 150.318 169.5 150.318C168.977 150.318 168.546 150.454 168.208 150.726C167.87 150.998 167.619 151.354 167.457 151.795C167.295 152.236 167.213 152.711 167.213 153.222C167.213 153.732 167.295 154.206 167.457 154.643C167.619 155.081 167.87 155.434 168.208 155.702C168.546 155.971 168.977 156.105 169.5 156.105ZM175.925 152.406V157H174.752V149.364H175.885V150.557H175.985C176.164 150.169 176.435 149.857 176.8 149.622C177.164 149.384 177.635 149.264 178.212 149.264C178.729 149.264 179.181 149.37 179.569 149.582C179.957 149.791 180.258 150.109 180.474 150.537C180.689 150.961 180.797 151.498 180.797 152.148V157H179.624V152.227C179.624 151.627 179.468 151.16 179.156 150.825C178.845 150.487 178.417 150.318 177.874 150.318C177.499 150.318 177.164 150.399 176.869 150.562C176.578 150.724 176.347 150.961 176.178 151.273C176.009 151.584 175.925 151.962 175.925 152.406ZM188.35 151.074L187.296 151.372C187.23 151.196 187.132 151.026 187.003 150.86C186.877 150.691 186.705 150.552 186.486 150.442C186.267 150.333 185.987 150.278 185.646 150.278C185.178 150.278 184.789 150.386 184.477 150.602C184.169 150.814 184.015 151.084 184.015 151.412C184.015 151.704 184.121 151.934 184.333 152.103C184.545 152.272 184.877 152.413 185.327 152.526L186.461 152.804C187.144 152.97 187.652 153.223 187.987 153.565C188.322 153.903 188.489 154.339 188.489 154.872C188.489 155.31 188.363 155.701 188.112 156.045C187.863 156.39 187.515 156.662 187.067 156.861C186.62 157.06 186.1 157.159 185.506 157.159C184.728 157.159 184.083 156.99 183.572 156.652C183.062 156.314 182.739 155.82 182.603 155.17L183.717 154.892C183.823 155.303 184.023 155.611 184.318 155.817C184.616 156.022 185.006 156.125 185.487 156.125C186.033 156.125 186.468 156.009 186.789 155.777C187.114 155.542 187.276 155.26 187.276 154.932C187.276 154.667 187.183 154.445 186.998 154.266C186.812 154.083 186.527 153.947 186.143 153.858L184.87 153.56C184.171 153.394 183.657 153.137 183.329 152.789C183.004 152.438 182.842 151.999 182.842 151.472C182.842 151.041 182.963 150.66 183.205 150.328C183.45 149.997 183.783 149.737 184.204 149.548C184.628 149.359 185.109 149.264 185.646 149.264C186.401 149.264 186.995 149.43 187.425 149.761C187.86 150.093 188.168 150.53 188.35 151.074ZM193.358 157.159C192.668 157.159 192.064 156.995 191.543 156.667C191.026 156.339 190.622 155.88 190.33 155.29C190.042 154.7 189.898 154.01 189.898 153.222C189.898 152.426 190.042 151.732 190.33 151.138C190.622 150.545 191.026 150.085 191.543 149.756C192.064 149.428 192.668 149.264 193.358 149.264C194.047 149.264 194.65 149.428 195.167 149.756C195.688 150.085 196.092 150.545 196.381 151.138C196.672 151.732 196.818 152.426 196.818 153.222C196.818 154.01 196.672 154.7 196.381 155.29C196.092 155.88 195.688 156.339 195.167 156.667C194.65 156.995 194.047 157.159 193.358 157.159ZM193.358 156.105C193.881 156.105 194.312 155.971 194.65 155.702C194.988 155.434 195.239 155.081 195.401 154.643C195.564 154.206 195.645 153.732 195.645 153.222C195.645 152.711 195.564 152.236 195.401 151.795C195.239 151.354 194.988 150.998 194.65 150.726C194.312 150.454 193.881 150.318 193.358 150.318C192.834 150.318 192.403 150.454 192.065 150.726C191.727 150.998 191.477 151.354 191.314 151.795C191.152 152.236 191.071 152.711 191.071 153.222C191.071 153.732 191.152 154.206 191.314 154.643C191.477 155.081 191.727 155.434 192.065 155.702C192.403 155.971 192.834 156.105 193.358 156.105ZM199.782 152.406V157H198.609V149.364H199.743V150.557H199.842C200.021 150.169 200.293 149.857 200.657 149.622C201.022 149.384 201.493 149.264 202.069 149.264C202.586 149.264 203.039 149.37 203.426 149.582C203.814 149.791 204.116 150.109 204.331 150.537C204.547 150.961 204.654 151.498 204.654 152.148V157H203.481V152.227C203.481 151.627 203.325 151.16 203.014 150.825C202.702 150.487 202.275 150.318 201.731 150.318C201.357 150.318 201.022 150.399 200.727 150.562C200.435 150.724 200.205 150.961 200.036 151.273C199.867 151.584 199.782 151.962 199.782 152.406Z" fill="black"/>
</svg>
